<svg width="308" height="117" viewBox="0 0 308 117" fill="none" xmlns="http://www.w3.org/2000/svg">
<path d="M24 1H284C296.703 1 307 11.2975 307 24V93C307 105.703 296.703 116 284 116H24C11.2975 116 1 105.703 1 93V24C1 11.2975 11.2975 1 24 1Z" stroke="white" stroke-width="2"/>
<path d="M79.9849 60.0899C79.9266 53.7732 85.2896 50.7 85.5349 50.557C82.4975 46.2393 77.7898 45.6494 76.1354 45.6024C72.1815 45.1967 68.3461 47.9092 66.3319 47.9092C64.2776 47.9092 61.1759 45.6416 57.833 45.7082C53.5313 45.7729 49.507 48.2012 47.2998 51.972C42.7448 59.6607 46.142 70.9595 50.506 77.1743C52.689 80.218 55.2399 83.6165 58.5788 83.4969C61.8453 83.3656 63.0654 81.4665 67.0073 81.4665C70.9131 81.4665 72.0588 83.4969 75.464 83.4205C78.9697 83.3656 81.1769 80.3631 83.2835 77.2919C85.8063 73.8033 86.8194 70.3676 86.8596 70.1912C86.7772 70.1638 80.0512 67.661 79.9849 60.0899Z" fill="white"/>
<path d="M73.5524 41.514C75.3093 39.3718 76.5113 36.4575 76.1776 33.5C73.6348 33.6098 70.4547 35.2149 68.6235 37.31C67.0033 39.1563 65.556 42.1823 65.9299 45.0281C68.7863 45.2359 71.7191 43.6229 73.5524 41.514Z" fill="white"/>
<path d="M121.415 46H118.119V35.8182H121.519C122.517 35.8182 123.374 36.022 124.089 36.4297C124.805 36.834 125.354 37.4157 125.735 38.1747C126.12 38.9304 126.312 39.8369 126.312 40.8942C126.312 41.9548 126.118 42.8662 125.73 43.6286C125.346 44.3909 124.789 44.9775 124.06 45.3885C123.33 45.7962 122.449 46 121.415 46ZM119.655 44.6577H121.33C122.106 44.6577 122.75 44.5118 123.264 44.2202C123.778 43.9252 124.162 43.4993 124.418 42.9425C124.673 42.3823 124.8 41.6996 124.8 40.8942C124.8 40.0954 124.673 39.4176 124.418 38.8608C124.166 38.304 123.79 37.8814 123.289 37.593C122.789 37.3047 122.167 37.1605 121.425 37.1605H119.655V44.6577ZM130.619 46.1541C129.904 46.1541 129.279 45.9901 128.745 45.6619C128.212 45.3338 127.797 44.8748 127.502 44.2848C127.207 43.6948 127.06 43.0054 127.06 42.2166C127.06 41.4245 127.207 40.7318 127.502 40.1385C127.797 39.5452 128.212 39.0845 128.745 38.7564C129.279 38.4283 129.904 38.2642 130.619 38.2642C131.335 38.2642 131.96 38.4283 132.494 38.7564C133.027 39.0845 133.442 39.5452 133.737 40.1385C134.032 40.7318 134.179 41.4245 134.179 42.2166C134.179 43.0054 134.032 43.6948 133.737 44.2848C133.442 44.8748 133.027 45.3338 132.494 45.6619C131.96 45.9901 131.335 46.1541 130.619 46.1541ZM130.624 44.9062C131.088 44.9062 131.473 44.7836 131.778 44.5384C132.083 44.2931 132.308 43.9666 132.454 43.5589C132.603 43.1513 132.678 42.7022 132.678 42.2116C132.678 41.7244 132.603 41.277 132.454 40.8693C132.308 40.4583 132.083 40.1286 131.778 39.88C131.473 39.6314 131.088 39.5071 130.624 39.5071C130.157 39.5071 129.769 39.6314 129.461 39.88C129.156 40.1286 128.929 40.4583 128.78 40.8693C128.634 41.277 128.561 41.7244 128.561 42.2116C128.561 42.7022 128.634 43.1513 128.78 43.5589C128.929 43.9666 129.156 44.2931 129.461 44.5384C129.769 44.7836 130.157 44.9062 130.624 44.9062ZM136.561 46L134.314 38.3636H135.851L137.347 43.9716H137.422L138.923 38.3636H140.459L141.951 43.9467H142.025L143.512 38.3636H145.048L142.806 46H141.289L139.738 40.4865H139.624L138.073 46H136.561ZM147.245 41.4659V46H145.759V38.3636H147.186V39.6065H147.28C147.456 39.2022 147.731 38.8774 148.105 38.6321C148.483 38.3868 148.959 38.2642 149.532 38.2642C150.052 38.2642 150.508 38.3736 150.899 38.5923C151.29 38.8078 151.594 39.1293 151.809 39.5568C152.025 39.9844 152.132 40.513 152.132 41.1428V46H150.646V41.3217C150.646 40.7682 150.502 40.3357 150.213 40.0241C149.925 39.7093 149.529 39.5518 149.025 39.5518C148.68 39.5518 148.374 39.6264 148.105 39.7756C147.84 39.9247 147.63 40.1435 147.474 40.4318C147.321 40.7169 147.245 41.0616 147.245 41.4659ZM154.912 35.8182V46H153.426V35.8182H154.912ZM159.429 46.1541C158.713 46.1541 158.088 45.9901 157.555 45.6619C157.021 45.3338 156.607 44.8748 156.312 44.2848C156.017 43.6948 155.869 43.0054 155.869 42.2166C155.869 41.4245 156.017 40.7318 156.312 40.1385C156.607 39.5452 157.021 39.0845 157.555 38.7564C158.088 38.4283 158.713 38.2642 159.429 38.2642C160.145 38.2642 160.769 38.4283 161.303 38.7564C161.837 39.0845 162.251 39.5452 162.546 40.1385C162.841 40.7318 162.988 41.4245 162.988 42.2166C162.988 43.0054 162.841 43.6948 162.546 44.2848C162.251 44.8748 161.837 45.3338 161.303 45.6619C160.769 45.9901 160.145 46.1541 159.429 46.1541ZM159.434 44.9062C159.898 44.9062 160.282 44.7836 160.587 44.5384C160.892 44.2931 161.117 43.9666 161.263 43.5589C161.412 43.1513 161.487 42.7022 161.487 42.2116C161.487 41.7244 161.412 41.277 161.263 40.8693C161.117 40.4583 160.892 40.1286 160.587 39.88C160.282 39.6314 159.898 39.5071 159.434 39.5071C158.966 39.5071 158.579 39.6314 158.27 39.88C157.965 40.1286 157.738 40.4583 157.589 40.8693C157.443 41.277 157.371 41.7244 157.371 42.2116C157.371 42.7022 157.443 43.1513 157.589 43.5589C157.738 43.9666 157.965 44.2931 158.27 44.5384C158.579 44.7836 158.966 44.9062 159.434 44.9062ZM166.17 46.169C165.686 46.169 165.249 46.0795 164.858 45.9006C164.466 45.7183 164.157 45.4548 163.928 45.1101C163.702 44.7654 163.59 44.3428 163.59 43.8423C163.59 43.4115 163.673 43.0568 163.838 42.7784C164.004 42.5 164.228 42.2796 164.51 42.1172C164.791 41.9548 165.106 41.8321 165.454 41.7493C165.802 41.6664 166.157 41.6035 166.518 41.5604C166.975 41.5073 167.347 41.4643 167.632 41.4311C167.917 41.3946 168.124 41.3366 168.253 41.2571C168.382 41.1776 168.447 41.0483 168.447 40.8693V40.8345C168.447 40.4003 168.324 40.0639 168.079 39.8253C167.837 39.5866 167.476 39.4673 166.995 39.4673C166.495 39.4673 166.1 39.5784 165.812 39.8004C165.527 40.0192 165.33 40.2628 165.22 40.5312L163.823 40.2131C163.989 39.7491 164.231 39.3745 164.549 39.0895C164.871 38.8011 165.24 38.5923 165.658 38.4631C166.076 38.3305 166.515 38.2642 166.975 38.2642C167.28 38.2642 167.604 38.3007 167.945 38.3736C168.29 38.4432 168.611 38.5724 168.909 38.7614C169.211 38.9503 169.458 39.2204 169.65 39.5717C169.842 39.9197 169.938 40.3722 169.938 40.929V46H168.487V44.956H168.427C168.331 45.1482 168.187 45.3371 167.995 45.5227C167.802 45.7083 167.555 45.8625 167.254 45.9851C166.952 46.1077 166.591 46.169 166.17 46.169ZM166.493 44.9759C166.904 44.9759 167.255 44.8946 167.547 44.7322C167.842 44.5698 168.066 44.3577 168.218 44.0959C168.374 43.8307 168.452 43.5473 168.452 43.2457V42.2614C168.399 42.3144 168.296 42.3641 168.144 42.4105C167.995 42.4536 167.824 42.4917 167.632 42.5249C167.439 42.5547 167.252 42.5829 167.07 42.6094C166.888 42.6326 166.735 42.6525 166.612 42.669C166.324 42.7055 166.061 42.7668 165.822 42.853C165.587 42.9392 165.398 43.0634 165.255 43.2259C165.116 43.3849 165.046 43.5971 165.046 43.8622C165.046 44.2301 165.182 44.5085 165.454 44.6974C165.726 44.883 166.072 44.9759 166.493 44.9759ZM174.077 46.1491C173.461 46.1491 172.91 45.9917 172.427 45.6768C171.946 45.3587 171.568 44.9062 171.293 44.3196C171.021 43.7296 170.885 43.022 170.885 42.1967C170.885 41.3714 171.023 40.6655 171.298 40.0788C171.576 39.4922 171.958 39.0431 172.441 38.7315C172.925 38.42 173.474 38.2642 174.087 38.2642C174.561 38.2642 174.942 38.3438 175.231 38.5028C175.522 38.6586 175.748 38.8409 175.907 39.0497C176.069 39.2585 176.195 39.4425 176.284 39.6016H176.374V35.8182H177.86V46H176.409V44.8118H176.284C176.195 44.9742 176.066 45.1598 175.897 45.3686C175.731 45.5774 175.502 45.7597 175.211 45.9155C174.919 46.0713 174.541 46.1491 174.077 46.1491ZM174.405 44.8814C174.833 44.8814 175.194 44.7687 175.489 44.5433C175.787 44.3146 176.013 43.9981 176.165 43.5938C176.321 43.1894 176.399 42.7187 176.399 42.1818C176.399 41.6515 176.323 41.1875 176.17 40.7898C176.018 40.392 175.794 40.0821 175.499 39.8601C175.204 39.638 174.839 39.527 174.405 39.527C173.958 39.527 173.585 39.643 173.287 39.875C172.988 40.107 172.763 40.4235 172.61 40.8246C172.461 41.2256 172.387 41.678 172.387 42.1818C172.387 42.6922 172.463 43.1513 172.615 43.5589C172.768 43.9666 172.993 44.2898 173.292 44.5284C173.593 44.7637 173.964 44.8814 174.405 44.8814ZM185.504 46.1541C184.788 46.1541 184.163 45.9901 183.63 45.6619C183.096 45.3338 182.682 44.8748 182.387 44.2848C182.092 43.6948 181.944 43.0054 181.944 42.2166C181.944 41.4245 182.092 40.7318 182.387 40.1385C182.682 39.5452 183.096 39.0845 183.63 38.7564C184.163 38.4283 184.788 38.2642 185.504 38.2642C186.22 38.2642 186.844 38.4283 187.378 38.7564C187.912 39.0845 188.326 39.5452 188.621 40.1385C188.916 40.7318 189.063 41.4245 189.063 42.2166C189.063 43.0054 188.916 43.6948 188.621 44.2848C188.326 44.8748 187.912 45.3338 187.378 45.6619C186.844 45.9901 186.22 46.1541 185.504 46.1541ZM185.509 44.9062C185.973 44.9062 186.357 44.7836 186.662 44.5384C186.967 44.2931 187.192 43.9666 187.338 43.5589C187.487 43.1513 187.562 42.7022 187.562 42.2116C187.562 41.7244 187.487 41.277 187.338 40.8693C187.192 40.4583 186.967 40.1286 186.662 39.88C186.357 39.6314 185.973 39.5071 185.509 39.5071C185.041 39.5071 184.654 39.6314 184.345 39.88C184.04 40.1286 183.813 40.4583 183.664 40.8693C183.518 41.277 183.446 41.7244 183.446 42.2116C183.446 42.7022 183.518 43.1513 183.664 43.5589C183.813 43.9666 184.04 44.2931 184.345 44.5384C184.654 44.7836 185.041 44.9062 185.509 44.9062ZM191.509 41.4659V46H190.023V38.3636H191.45V39.6065H191.544C191.72 39.2022 191.995 38.8774 192.369 38.6321C192.747 38.3868 193.223 38.2642 193.796 38.2642C194.317 38.2642 194.772 38.3736 195.163 38.5923C195.554 38.8078 195.858 39.1293 196.073 39.5568C196.289 39.9844 196.396 40.513 196.396 41.1428V46H194.91V41.3217C194.91 40.7682 194.766 40.3357 194.477 40.0241C194.189 39.7093 193.793 39.5518 193.289 39.5518C192.944 39.5518 192.638 39.6264 192.369 39.7756C192.104 39.9247 191.894 40.1435 191.738 40.4318C191.585 40.7169 191.509 41.0616 191.509 41.4659ZM204.26 38.3636V39.5568H200.088V38.3636H204.26ZM201.207 36.5341H202.694V43.7578C202.694 44.0462 202.737 44.2633 202.823 44.4091C202.909 44.5516 203.02 44.6494 203.156 44.7024C203.295 44.7521 203.446 44.777 203.608 44.777C203.728 44.777 203.832 44.7687 203.922 44.7521C204.011 44.7356 204.081 44.7223 204.13 44.7124L204.399 45.9403C204.313 45.9735 204.19 46.0066 204.031 46.0398C203.872 46.0762 203.673 46.0961 203.434 46.0994C203.043 46.1061 202.679 46.0365 202.341 45.8906C202.003 45.7448 201.729 45.5194 201.52 45.2145C201.311 44.9096 201.207 44.5268 201.207 44.0661V36.5341ZM206.855 41.4659V46H205.368V35.8182H206.835V39.6065H206.929C207.108 39.1955 207.382 38.8691 207.749 38.6271C208.117 38.3852 208.598 38.2642 209.191 38.2642C209.715 38.2642 210.172 38.3719 210.563 38.5874C210.958 38.8028 211.263 39.1243 211.478 39.5518C211.697 39.9761 211.806 40.5064 211.806 41.1428V46H210.32V41.3217C210.32 40.7616 210.176 40.3274 209.887 40.0192C209.599 39.7076 209.198 39.5518 208.684 39.5518C208.333 39.5518 208.018 39.6264 207.739 39.7756C207.464 39.9247 207.247 40.1435 207.088 40.4318C206.932 40.7169 206.855 41.0616 206.855 41.4659ZM216.381 46.1541C215.629 46.1541 214.981 45.9934 214.437 45.6719C213.897 45.3471 213.479 44.8913 213.184 44.3047C212.893 43.7147 212.747 43.0237 212.747 42.2315C212.747 41.4493 212.893 40.7599 213.184 40.1634C213.479 39.5668 213.89 39.1011 214.417 38.7663C214.948 38.4316 215.567 38.2642 216.277 38.2642C216.708 38.2642 217.125 38.3355 217.53 38.478C217.934 38.6205 218.297 38.8442 218.618 39.1491C218.94 39.4541 219.193 39.8501 219.379 40.3374C219.565 40.8213 219.657 41.4096 219.657 42.1023V42.6293H213.587V41.5156H218.201C218.201 41.1245 218.121 40.7782 217.962 40.4766C217.803 40.1716 217.579 39.9313 217.291 39.7557C217.006 39.58 216.671 39.4922 216.287 39.4922C215.869 39.4922 215.504 39.5949 215.193 39.8004C214.885 40.0026 214.646 40.2678 214.477 40.5959C214.311 40.9207 214.228 41.2737 214.228 41.6548V42.5249C214.228 43.0353 214.318 43.4695 214.497 43.8274C214.679 44.1854 214.933 44.4588 215.258 44.6477C215.582 44.8333 215.962 44.9261 216.396 44.9261C216.678 44.9261 216.935 44.8864 217.167 44.8068C217.399 44.724 217.599 44.6013 217.768 44.4389C217.937 44.2765 218.066 44.076 218.156 43.8374L219.563 44.0909C219.45 44.5052 219.248 44.8681 218.956 45.1797C218.668 45.4879 218.305 45.7282 217.868 45.9006C217.433 46.0696 216.938 46.1541 216.381 46.1541Z" fill="white"/>
<path d="M121.24 78H117.746L125.597 56.1818H129.401L137.252 78H133.758L127.589 60.1449H127.419L121.24 78ZM121.826 69.456H133.161V72.2259H121.826V69.456ZM138.647 84.1364V61.6364H141.758V64.2891H142.024C142.209 63.9482 142.475 63.554 142.823 63.1065C143.171 62.6591 143.654 62.2685 144.272 61.9347C144.89 61.5938 145.707 61.4233 146.722 61.4233C148.044 61.4233 149.222 61.7571 150.259 62.4247C151.296 63.0923 152.11 64.0547 152.699 65.3118C153.296 66.5689 153.594 68.0817 153.594 69.8501C153.594 71.6186 153.299 73.1349 152.71 74.3991C152.12 75.6562 151.311 76.6257 150.281 77.3075C149.251 77.9822 148.075 78.3196 146.754 78.3196C145.76 78.3196 144.947 78.1527 144.315 77.8189C143.69 77.4851 143.2 77.0945 142.845 76.647C142.49 76.1996 142.216 75.8018 142.024 75.4538H141.833V84.1364H138.647ZM141.769 69.8182C141.769 70.9687 141.936 71.9773 142.269 72.8438C142.603 73.7102 143.086 74.3885 143.718 74.8786C144.35 75.3615 145.124 75.603 146.041 75.603C146.992 75.603 147.788 75.3509 148.427 74.8466C149.066 74.3352 149.549 73.6428 149.876 72.7692C150.21 71.8956 150.377 70.9119 150.377 69.8182C150.377 68.7386 150.213 67.7692 149.887 66.9098C149.567 66.0504 149.084 65.3722 148.438 64.875C147.798 64.3778 146.999 64.1293 146.041 64.1293C145.117 64.1293 144.336 64.3672 143.697 64.843C143.065 65.3189 142.585 65.983 142.259 66.8352C141.932 67.6875 141.769 68.6818 141.769 69.8182ZM155.663 84.1364V61.6364H158.774V64.2891H159.04C159.225 63.9482 159.491 63.554 159.839 63.1065C160.187 62.6591 160.67 62.2685 161.288 61.9347C161.906 61.5938 162.722 61.4233 163.738 61.4233C165.059 61.4233 166.238 61.7571 167.275 62.4247C168.312 63.0923 169.125 64.0547 169.715 65.3118C170.311 66.5689 170.61 68.0817 170.61 69.8501C170.61 71.6186 170.315 73.1349 169.725 74.3991C169.136 75.6562 168.326 76.6257 167.296 77.3075C166.267 77.9822 165.091 78.3196 163.77 78.3196C162.776 78.3196 161.963 78.1527 161.33 77.8189C160.705 77.4851 160.215 77.0945 159.86 76.647C159.505 76.1996 159.232 75.8018 159.04 75.4538H158.848V84.1364H155.663ZM158.784 69.8182C158.784 70.9687 158.951 71.9773 159.285 72.8438C159.619 73.7102 160.102 74.3885 160.734 74.8786C161.366 75.3615 162.14 75.603 163.056 75.603C164.008 75.603 164.803 75.3509 165.443 74.8466C166.082 74.3352 166.565 73.6428 166.892 72.7692C167.225 71.8956 167.392 70.9119 167.392 69.8182C167.392 68.7386 167.229 67.7692 166.902 66.9098C166.583 66.0504 166.1 65.3722 165.453 64.875C164.814 64.3778 164.015 64.1293 163.056 64.1293C162.133 64.1293 161.352 64.3672 160.713 64.843C160.08 65.3189 159.601 65.983 159.274 66.8352C158.948 67.6875 158.784 68.6818 158.784 69.8182ZM191.273 61.9134C191.16 60.9048 190.691 60.1236 189.867 59.5696C189.043 59.0085 188.006 58.728 186.756 58.728C185.862 58.728 185.087 58.87 184.434 59.1541C183.781 59.4311 183.273 59.8146 182.911 60.3047C182.555 60.7876 182.378 61.3381 182.378 61.956C182.378 62.4744 182.499 62.9219 182.74 63.2983C182.989 63.6747 183.312 63.9908 183.71 64.2464C184.114 64.495 184.548 64.7045 185.009 64.875C185.471 65.0384 185.915 65.1733 186.341 65.2798L188.472 65.8338C189.168 66.0043 189.881 66.2351 190.613 66.5263C191.344 66.8175 192.023 67.201 192.648 67.6768C193.273 68.1527 193.777 68.7422 194.161 69.4453C194.551 70.1484 194.746 70.9901 194.746 71.9702C194.746 73.206 194.427 74.3033 193.788 75.2621C193.156 76.2209 192.236 76.9773 191.028 77.5312C189.828 78.0852 188.376 78.3622 186.671 78.3622C185.038 78.3622 183.624 78.103 182.431 77.5845C181.238 77.0661 180.304 76.331 179.629 75.3793C178.955 74.4205 178.582 73.2841 178.511 71.9702H181.813C181.877 72.7585 182.133 73.4155 182.58 73.9411C183.035 74.4595 183.614 74.8466 184.317 75.1023C185.027 75.3509 185.805 75.4751 186.65 75.4751C187.58 75.4751 188.408 75.3295 189.132 75.0384C189.864 74.7401 190.439 74.3281 190.858 73.8026C191.277 73.2699 191.487 72.6484 191.487 71.9382C191.487 71.2919 191.302 70.7628 190.933 70.3509C190.57 69.9389 190.077 69.598 189.452 69.3281C188.834 69.0582 188.134 68.8203 187.353 68.6143L184.775 67.9112C183.028 67.4354 181.643 66.7358 180.62 65.8125C179.604 64.8892 179.097 63.6676 179.097 62.1477C179.097 60.8906 179.438 59.7933 180.119 58.8558C180.801 57.9183 181.724 57.1903 182.889 56.6719C184.054 56.1463 185.368 55.8835 186.831 55.8835C188.308 55.8835 189.612 56.1428 190.741 56.6612C191.877 57.1797 192.772 57.8935 193.425 58.8026C194.079 59.7045 194.42 60.7415 194.448 61.9134H191.273ZM204.563 61.6364V64.1932H195.625V61.6364H204.563ZM198.022 57.7159H201.207V73.1953C201.207 73.8132 201.3 74.2784 201.484 74.5909C201.669 74.8963 201.907 75.1058 202.198 75.2195C202.496 75.326 202.819 75.3793 203.167 75.3793C203.423 75.3793 203.647 75.3615 203.839 75.326C204.03 75.2905 204.18 75.2621 204.286 75.2408L204.861 77.8722C204.677 77.9432 204.414 78.0142 204.073 78.0852C203.732 78.1634 203.306 78.206 202.795 78.2131C201.956 78.2273 201.175 78.0781 200.451 77.7656C199.726 77.4531 199.14 76.9702 198.693 76.3168C198.246 75.6634 198.022 74.843 198.022 73.8558V57.7159ZM213.304 78.3303C211.77 78.3303 210.431 77.9787 209.287 77.2756C208.144 76.5724 207.256 75.5888 206.624 74.3246C205.992 73.0604 205.676 71.5831 205.676 69.8928C205.676 68.1953 205.992 66.7109 206.624 65.4396C207.256 64.1683 208.144 63.1811 209.287 62.478C210.431 61.7749 211.77 61.4233 213.304 61.4233C214.838 61.4233 216.176 61.7749 217.32 62.478C218.463 63.1811 219.351 64.1683 219.983 65.4396C220.615 66.7109 220.931 68.1953 220.931 69.8928C220.931 71.5831 220.615 73.0604 219.983 74.3246C219.351 75.5888 218.463 76.5724 217.32 77.2756C216.176 77.9787 214.838 78.3303 213.304 78.3303ZM213.314 75.6562C214.309 75.6562 215.132 75.3935 215.786 74.8679C216.439 74.3423 216.922 73.6428 217.235 72.7692C217.554 71.8956 217.714 70.9332 217.714 69.8821C217.714 68.8381 217.554 67.8793 217.235 67.0057C216.922 66.125 216.439 65.4183 215.786 64.8857C215.132 64.353 214.309 64.0866 213.314 64.0866C212.313 64.0866 211.482 64.353 210.821 64.8857C210.168 65.4183 209.681 66.125 209.362 67.0057C209.049 67.8793 208.893 68.8381 208.893 69.8821C208.893 70.9332 209.049 71.8956 209.362 72.7692C209.681 73.6428 210.168 74.3423 210.821 74.8679C211.482 75.3935 212.313 75.6562 213.314 75.6562ZM222.987 78V61.6364H226.066V64.2358H226.236C226.535 63.3551 227.06 62.6626 227.813 62.1584C228.573 61.647 229.432 61.3913 230.391 61.3913C230.59 61.3913 230.824 61.3984 231.094 61.4126C231.371 61.4268 231.588 61.4446 231.744 61.4659V64.5128C231.616 64.4773 231.389 64.4382 231.062 64.3956C230.736 64.3459 230.409 64.321 230.082 64.321C229.329 64.321 228.658 64.4808 228.069 64.8004C227.486 65.1129 227.025 65.5497 226.684 66.1108C226.343 66.6648 226.172 67.2969 226.172 68.0071V78H222.987ZM239.467 78.3303C237.855 78.3303 236.467 77.9858 235.302 77.2969C234.144 76.6009 233.249 75.6243 232.617 74.3672C231.992 73.103 231.68 71.6222 231.68 69.9247C231.68 68.2486 231.992 66.7713 232.617 65.4929C233.249 64.2145 234.13 63.2166 235.259 62.4993C236.396 61.782 237.724 61.4233 239.244 61.4233C240.167 61.4233 241.062 61.576 241.928 61.8814C242.795 62.1868 243.572 62.6662 244.261 63.3196C244.95 63.973 245.494 64.8217 245.891 65.8658C246.289 66.9027 246.488 68.1634 246.488 69.6477V70.777H233.48V68.3906H243.366C243.366 67.5526 243.196 66.8104 242.855 66.1641C242.514 65.5107 242.035 64.9957 241.417 64.6193C240.806 64.2429 240.089 64.0547 239.265 64.0547C238.37 64.0547 237.589 64.2749 236.921 64.7152C236.261 65.1484 235.749 65.7166 235.387 66.4197C235.032 67.1158 234.854 67.8722 234.854 68.6889V70.5533C234.854 71.647 235.046 72.5774 235.43 73.3445C235.82 74.1115 236.364 74.6974 237.06 75.1023C237.756 75.5 238.569 75.6989 239.499 75.6989C240.103 75.6989 240.653 75.6136 241.151 75.4432C241.648 75.2656 242.077 75.0028 242.44 74.6548C242.802 74.3068 243.079 73.8771 243.271 73.3658L246.286 73.9091C246.044 74.7969 245.611 75.5746 244.986 76.2422C244.368 76.9027 243.59 77.4176 242.653 77.7869C241.722 78.1491 240.661 78.3303 239.467 78.3303Z" fill="white"/>
</svg>
