<svg width="308" height="117" viewBox="0 0 308 117" fill="none" xmlns="http://www.w3.org/2000/svg">
<rect x="1" y="1" width="306" height="115" rx="23" stroke="white" stroke-width="2"/>
<path fill-rule="evenodd" clip-rule="evenodd" d="M48.6235 34.2447L76.4571 49.7119L69.4327 56.3733L45.4572 33.6174C46.4134 33.3547 47.5012 33.5198 48.6235 34.2447ZM43.1406 37.2456C43.1406 36.7176 43.1607 36.2556 43.3253 35.8609L67.1688 58.5178L43.3253 81.1069C43.1607 80.7125 43.1406 80.2508 43.1406 79.7563V37.2456ZM86.7459 55.418L79.3258 51.2948L71.6744 58.518L79.4234 65.8383L86.6461 61.8811C90.2085 59.9017 88.8896 56.6374 86.7459 55.418ZM48.6228 82.7888C47.5003 83.4491 46.3793 83.6817 45.3903 83.3503L69.3653 60.6614L76.555 67.4872L48.6228 82.7888Z" fill="white"/>
<path d="M125.009 39.0348C124.913 38.7332 124.784 38.4631 124.621 38.2244C124.462 37.9825 124.272 37.777 124.05 37.608C123.828 37.4356 123.574 37.3047 123.289 37.2152C123.007 37.1257 122.697 37.081 122.359 37.081C121.786 37.081 121.269 37.2285 120.808 37.5234C120.348 37.8184 119.983 38.2509 119.714 38.821C119.449 39.3878 119.317 40.0821 119.317 40.9041C119.317 41.7294 119.451 42.4271 119.719 42.9972C119.988 43.5672 120.356 43.9998 120.823 44.2947C121.29 44.5897 121.822 44.7372 122.419 44.7372C122.973 44.7372 123.455 44.6245 123.866 44.3991C124.28 44.1738 124.6 43.8556 124.825 43.4446C125.054 43.0303 125.168 42.5431 125.168 41.983L125.566 42.0575H122.653V40.7898H126.655V41.9482C126.655 42.8033 126.473 43.5457 126.108 44.1754C125.747 44.8018 125.246 45.2857 124.607 45.6271C123.97 45.9685 123.241 46.1392 122.419 46.1392C121.498 46.1392 120.689 45.9271 119.993 45.5028C119.3 45.0786 118.76 44.477 118.372 43.6982C117.984 42.916 117.79 41.9879 117.79 40.9141C117.79 40.102 117.903 39.3729 118.129 38.7266C118.354 38.0803 118.67 37.5317 119.078 37.081C119.489 36.6269 119.971 36.2805 120.525 36.0419C121.082 35.8 121.69 35.679 122.349 35.679C122.9 35.679 123.412 35.7602 123.886 35.9226C124.363 36.085 124.787 36.3153 125.158 36.6136C125.533 36.9119 125.843 37.2666 126.088 37.6776C126.333 38.0852 126.499 38.5376 126.585 39.0348H125.009ZM127.905 46V35.8182H134.288V37.1406H129.441V40.2429H133.955V41.5604H129.441V44.6776H134.348V46H127.905ZM135.138 37.1406V35.8182H143.018V37.1406H139.841V46H138.31V37.1406H135.138ZM148.601 35.8182V46H147.065V35.8182H148.601ZM158.356 35.8182V46H156.944L151.769 38.5327H151.674V46H150.138V35.8182H151.56L156.74 43.2955H156.835V35.8182H158.356ZM171.747 40.9091C171.747 41.9962 171.548 42.9309 171.15 43.7131C170.752 44.492 170.207 45.0919 169.514 45.5128C168.825 45.9304 168.041 46.1392 167.163 46.1392C166.281 46.1392 165.494 45.9304 164.801 45.5128C164.112 45.0919 163.568 44.4903 163.171 43.7081C162.773 42.9259 162.574 41.9929 162.574 40.9091C162.574 39.822 162.773 38.889 163.171 38.1101C163.568 37.3279 164.112 36.728 164.801 36.3104C165.494 35.8894 166.281 35.679 167.163 35.679C168.041 35.679 168.825 35.8894 169.514 36.3104C170.207 36.728 170.752 37.3279 171.15 38.1101C171.548 38.889 171.747 39.822 171.747 40.9091ZM170.225 40.9091C170.225 40.0805 170.091 39.3828 169.823 38.8161C169.558 38.246 169.193 37.8151 168.729 37.5234C168.268 37.2285 167.746 37.081 167.163 37.081C166.576 37.081 166.053 37.2285 165.592 37.5234C165.131 37.8151 164.767 38.246 164.498 38.8161C164.233 39.3828 164.1 40.0805 164.1 40.9091C164.1 41.7377 164.233 42.437 164.498 43.0071C164.767 43.5739 165.131 44.0047 165.592 44.2997C166.053 44.5914 166.576 44.7372 167.163 44.7372C167.746 44.7372 168.268 44.5914 168.729 44.2997C169.193 44.0047 169.558 43.5739 169.823 43.0071C170.091 42.437 170.225 41.7377 170.225 40.9091ZM181.18 35.8182V46H179.768L174.593 38.5327H174.498V46H172.962V35.8182H174.384L179.564 43.2955H179.659V35.8182H181.18Z" fill="white"/>
<path d="M134.163 63.0746C133.957 62.4283 133.68 61.8494 133.332 61.3381C132.991 60.8196 132.582 60.3793 132.107 60.017C131.631 59.6477 131.087 59.3672 130.477 59.1754C129.873 58.9837 129.209 58.8878 128.484 58.8878C127.256 58.8878 126.148 59.2038 125.161 59.8359C124.173 60.468 123.392 61.3949 122.817 62.6165C122.249 63.831 121.964 65.3189 121.964 67.0803C121.964 68.8487 122.252 70.3437 122.827 71.5653C123.403 72.7869 124.191 73.7138 125.192 74.3459C126.194 74.978 127.334 75.294 128.612 75.294C129.798 75.294 130.832 75.0526 131.712 74.5696C132.6 74.0866 133.286 73.4048 133.768 72.5241C134.259 71.6364 134.504 70.5923 134.504 69.392L135.356 69.5518H129.113V66.8352H137.689V69.3175C137.689 71.1499 137.298 72.7408 136.517 74.0902C135.743 75.4325 134.67 76.4695 133.3 77.201C131.936 77.9325 130.374 78.2983 128.612 78.2983C126.638 78.2983 124.905 77.8438 123.413 76.9347C121.929 76.0256 120.771 74.7365 119.94 73.0675C119.109 71.3913 118.694 69.4027 118.694 67.1016C118.694 65.3615 118.935 63.799 119.418 62.4141C119.901 61.0291 120.58 59.8537 121.453 58.8878C122.334 57.9148 123.367 57.1726 124.553 56.6612C125.746 56.1428 127.05 55.8835 128.463 55.8835C129.642 55.8835 130.739 56.0575 131.755 56.4055C132.778 56.7536 133.687 57.2472 134.482 57.8864C135.285 58.5256 135.949 59.2855 136.474 60.1662C137 61.0398 137.355 62.0092 137.54 63.0746H134.163ZM147.005 78.3303C145.471 78.3303 144.132 77.9787 142.988 77.2756C141.845 76.5724 140.957 75.5888 140.325 74.3246C139.693 73.0604 139.377 71.5831 139.377 69.8928C139.377 68.1953 139.693 66.7109 140.325 65.4396C140.957 64.1683 141.845 63.1811 142.988 62.478C144.132 61.7749 145.471 61.4233 147.005 61.4233C148.539 61.4233 149.878 61.7749 151.021 62.478C152.165 63.1811 153.052 64.1683 153.684 65.4396C154.317 66.7109 154.633 68.1953 154.633 69.8928C154.633 71.5831 154.317 73.0604 153.684 74.3246C153.052 75.5888 152.165 76.5724 151.021 77.2756C149.878 77.9787 148.539 78.3303 147.005 78.3303ZM147.015 75.6562C148.01 75.6562 148.834 75.3935 149.487 74.8679C150.14 74.3423 150.623 73.6428 150.936 72.7692C151.256 71.8956 151.415 70.9332 151.415 69.8821C151.415 68.8381 151.256 67.8793 150.936 67.0057C150.623 66.125 150.14 65.4183 149.487 64.8857C148.834 64.353 148.01 64.0866 147.015 64.0866C146.014 64.0866 145.183 64.353 144.523 64.8857C143.869 65.4183 143.383 66.125 143.063 67.0057C142.751 67.8793 142.594 68.8381 142.594 69.8821C142.594 70.9332 142.751 71.8956 143.063 72.7692C143.383 73.6428 143.869 74.3423 144.523 74.8679C145.183 75.3935 146.014 75.6562 147.015 75.6562ZM163.581 78.3303C162.047 78.3303 160.708 77.9787 159.565 77.2756C158.421 76.5724 157.533 75.5888 156.901 74.3246C156.269 73.0604 155.953 71.5831 155.953 69.8928C155.953 68.1953 156.269 66.7109 156.901 65.4396C157.533 64.1683 158.421 63.1811 159.565 62.478C160.708 61.7749 162.047 61.4233 163.581 61.4233C165.115 61.4233 166.454 61.7749 167.597 62.478C168.741 63.1811 169.629 64.1683 170.261 65.4396C170.893 66.7109 171.209 68.1953 171.209 69.8928C171.209 71.5831 170.893 73.0604 170.261 74.3246C169.629 75.5888 168.741 76.5724 167.597 77.2756C166.454 77.9787 165.115 78.3303 163.581 78.3303ZM163.592 75.6562C164.586 75.6562 165.41 75.3935 166.063 74.8679C166.717 74.3423 167.2 73.6428 167.512 72.7692C167.832 71.8956 167.991 70.9332 167.991 69.8821C167.991 68.8381 167.832 67.8793 167.512 67.0057C167.2 66.125 166.717 65.4183 166.063 64.8857C165.41 64.353 164.586 64.0866 163.592 64.0866C162.59 64.0866 161.759 64.353 161.099 64.8857C160.445 65.4183 159.959 66.125 159.639 67.0057C159.327 67.8793 159.17 68.8381 159.17 69.8821C159.17 70.9332 159.327 71.8956 159.639 72.7692C159.959 73.6428 160.445 74.3423 161.099 74.8679C161.759 75.3935 162.59 75.6562 163.592 75.6562ZM180.125 84.4773C178.825 84.4773 177.707 84.3068 176.769 83.9659C175.839 83.625 175.079 83.174 174.49 82.6129C173.9 82.0518 173.46 81.4375 173.169 80.7699L175.906 79.6406C176.098 79.9531 176.354 80.2834 176.673 80.6314C177 80.9865 177.441 81.2884 177.994 81.5369C178.556 81.7855 179.276 81.9098 180.157 81.9098C181.365 81.9098 182.362 81.6151 183.151 81.0256C183.939 80.4432 184.333 79.5128 184.333 78.2344V75.017H184.131C183.939 75.3651 183.662 75.7521 183.3 76.1783C182.945 76.6044 182.455 76.9737 181.83 77.2862C181.205 77.5987 180.392 77.755 179.39 77.755C178.097 77.755 176.933 77.4531 175.896 76.8494C174.866 76.2386 174.049 75.3402 173.445 74.1541C172.849 72.9609 172.551 71.4943 172.551 69.7543C172.551 68.0142 172.845 66.5227 173.435 65.2798C174.031 64.0369 174.848 63.0852 175.885 62.4247C176.922 61.7571 178.097 61.4233 179.411 61.4233C180.427 61.4233 181.247 61.5938 181.872 61.9347C182.497 62.2685 182.984 62.6591 183.332 63.1065C183.687 63.554 183.96 63.9482 184.152 64.2891H184.387V61.6364H187.508V78.3622C187.508 79.7685 187.181 80.9226 186.528 81.8246C185.874 82.7266 184.99 83.3942 183.875 83.8274C182.767 84.2607 181.517 84.4773 180.125 84.4773ZM180.093 75.1129C181.009 75.1129 181.784 74.8999 182.416 74.4737C183.055 74.0405 183.538 73.4226 183.865 72.62C184.198 71.8104 184.365 70.8409 184.365 69.7116C184.365 68.6108 184.202 67.6413 183.875 66.8033C183.548 65.9652 183.069 65.3118 182.437 64.843C181.805 64.3672 181.024 64.1293 180.093 64.1293C179.134 64.1293 178.335 64.3778 177.696 64.875C177.057 65.3651 176.574 66.0327 176.247 66.8778C175.928 67.723 175.768 68.6676 175.768 69.7116C175.768 70.7841 175.931 71.7251 176.258 72.5348C176.585 73.3445 177.068 73.9766 177.707 74.4311C178.353 74.8857 179.149 75.1129 180.093 75.1129ZM193.465 56.1818V78H190.28V56.1818H193.465ZM203.303 78.3303C201.691 78.3303 200.303 77.9858 199.138 77.2969C197.98 76.6009 197.085 75.6243 196.453 74.3672C195.828 73.103 195.516 71.6222 195.516 69.9247C195.516 68.2486 195.828 66.7713 196.453 65.4929C197.085 64.2145 197.966 63.2166 199.095 62.4993C200.232 61.782 201.56 61.4233 203.08 61.4233C204.003 61.4233 204.898 61.576 205.764 61.8814C206.631 62.1868 207.408 62.6662 208.097 63.3196C208.786 63.973 209.33 64.8217 209.727 65.8658C210.125 66.9027 210.324 68.1634 210.324 69.6477V70.777H197.316V68.3906H207.202C207.202 67.5526 207.032 66.8104 206.691 66.1641C206.35 65.5107 205.871 64.9957 205.253 64.6193C204.642 64.2429 203.925 64.0547 203.101 64.0547C202.206 64.0547 201.425 64.2749 200.757 64.7152C200.097 65.1484 199.585 65.7166 199.223 66.4197C198.868 67.1158 198.69 67.8722 198.69 68.6889V70.5533C198.69 71.647 198.882 72.5774 199.266 73.3445C199.656 74.1115 200.2 74.6974 200.896 75.1023C201.592 75.5 202.405 75.6989 203.335 75.6989C203.939 75.6989 204.489 75.6136 204.987 75.4432C205.484 75.2656 205.913 75.0028 206.276 74.6548C206.638 74.3068 206.915 73.8771 207.107 73.3658L210.121 73.9091C209.88 74.7969 209.447 75.5746 208.822 76.2422C208.204 76.9027 207.426 77.4176 206.489 77.7869C205.558 78.1491 204.496 78.3303 203.303 78.3303ZM219.053 78V56.1818H226.83C228.528 56.1818 229.934 56.4908 231.049 57.1087C232.164 57.7266 232.999 58.5717 233.553 59.6442C234.107 60.7095 234.384 61.9098 234.384 63.245C234.384 64.5874 234.103 65.7947 233.542 66.8672C232.988 67.9325 232.15 68.7777 231.028 69.4027C229.913 70.0206 228.51 70.3295 226.82 70.3295H221.472V67.5384H226.521C227.594 67.5384 228.464 67.3537 229.131 66.9844C229.799 66.608 230.289 66.0966 230.602 65.4503C230.914 64.804 231.07 64.0689 231.07 63.245C231.07 62.4212 230.914 61.6896 230.602 61.0504C230.289 60.4112 229.795 59.9105 229.121 59.5483C228.453 59.1861 227.572 59.005 226.479 59.005H222.345V78H219.053ZM239.672 56.1818V78H236.487V56.1818H239.672ZM247.22 78.3622C246.183 78.3622 245.245 78.1705 244.407 77.7869C243.569 77.3963 242.905 76.8317 242.415 76.093C241.932 75.3544 241.691 74.4489 241.691 73.3764C241.691 72.4531 241.868 71.6932 242.223 71.0966C242.578 70.5 243.058 70.0277 243.662 69.6797C244.265 69.3317 244.94 69.0689 245.686 68.8913C246.431 68.7138 247.191 68.5788 247.966 68.4865C248.946 68.3729 249.741 68.2805 250.352 68.2095C250.963 68.1314 251.407 68.0071 251.684 67.8366C251.961 67.6662 252.099 67.3892 252.099 67.0057V66.9311C252.099 66.0007 251.836 65.2798 251.311 64.7685C250.792 64.2571 250.018 64.0014 248.988 64.0014C247.916 64.0014 247.071 64.2393 246.453 64.7152C245.842 65.1839 245.419 65.706 245.185 66.2812L242.191 65.5994C242.547 64.6051 243.065 63.8026 243.747 63.1918C244.436 62.5739 245.228 62.1264 246.123 61.8494C247.017 61.5653 247.958 61.4233 248.946 61.4233C249.599 61.4233 250.292 61.5014 251.023 61.6577C251.762 61.8068 252.451 62.0838 253.09 62.4886C253.736 62.8935 254.265 63.4723 254.677 64.2251C255.089 64.9709 255.295 65.9403 255.295 67.1335V78H252.184V75.7628H252.056C251.85 76.1747 251.542 76.5795 251.13 76.9773C250.718 77.375 250.189 77.7053 249.542 77.968C248.896 78.2308 248.122 78.3622 247.22 78.3622ZM247.912 75.8054C248.793 75.8054 249.546 75.6314 250.171 75.2834C250.803 74.9354 251.282 74.4808 251.609 73.9197C251.943 73.3516 252.11 72.7443 252.11 72.098V69.9886C251.996 70.1023 251.776 70.2088 251.449 70.3082C251.13 70.4006 250.764 70.4822 250.352 70.5533C249.94 70.6172 249.539 70.6776 249.148 70.7344C248.757 70.7841 248.431 70.8267 248.168 70.8622C247.55 70.9403 246.985 71.0717 246.474 71.2564C245.97 71.4411 245.565 71.7074 245.26 72.0554C244.961 72.3963 244.812 72.8509 244.812 73.419C244.812 74.2074 245.103 74.804 245.686 75.2088C246.268 75.6065 247.01 75.8054 247.912 75.8054ZM259.465 84.1364C258.99 84.1364 258.556 84.0973 258.166 84.0192C257.775 83.9482 257.484 83.87 257.292 83.7848L258.059 81.1747C258.642 81.331 259.16 81.3984 259.615 81.3771C260.069 81.3558 260.47 81.1854 260.818 80.8658C261.173 80.5462 261.486 80.0241 261.756 79.2997L262.15 78.2131L256.163 61.6364H259.572L263.716 74.3352H263.887L268.031 61.6364H271.45L264.707 80.1839C264.394 81.0362 263.997 81.7571 263.514 82.3466C263.031 82.9432 262.455 83.3906 261.788 83.6889C261.12 83.9872 260.346 84.1364 259.465 84.1364Z" fill="white"/>
</svg>
