<svg width="15" height="8" viewBox="0 0 15 8" fill="none" xmlns="http://www.w3.org/2000/svg" shape-rendering="geometricPrecision">
<path d="M6.30078 1.5H13.7008" stroke="currentColor" stroke-width="2" stroke-miterlimit="10" stroke-linecap="round" stroke-linejoin="round"/>
<path d="M1.80078 3C2.62921 3 3.30078 2.32843 3.30078 1.5C3.30078 0.671573 2.62921 0 1.80078 0C0.972354 0 0.300781 0.671573 0.300781 1.5C0.300781 2.32843 0.972354 3 1.80078 3Z" fill="currentColor"/>
<path d="M6.30078 6.5H13.7008" stroke="currentColor" stroke-width="2" stroke-miterlimit="10" stroke-linecap="round" stroke-linejoin="round"/>
<path d="M1.80078 8C2.62921 8 3.30078 7.32843 3.30078 6.5C3.30078 5.67157 2.62921 5 1.80078 5C0.972354 5 0.300781 5.67157 0.300781 6.5C0.300781 7.32843 0.972354 8 1.80078 8Z" fill="currentColor"/>
</svg>
