<svg viewBox="0 0 188 24" fill="none" xmlns="http://www.w3.org/2000/svg" shape-rendering="geometricPrecision">
<path d="M18.3687 15.5531V18.771H24.6704V15.5531H18.3687ZM0 18.6369H6.30168V15.419H0V18.6369ZM19.9777 5.49721L15.5531 9.92179L17.8324 12.2011L22.257 7.77654L19.9777 5.49721ZM1.07263 0L0 2.94972C6.43575 5.49721 10.7263 11.7989 10.7263 18.6369H13.9441C13.9441 10.4581 8.84916 2.94972 1.07263 0Z" fill="#5B41FF"/>
<path d="M40.8618 6.03352C39.7892 5.49721 38.7166 5.09497 37.3758 5.09497C36.035 5.09497 34.9624 5.36313 33.8898 6.03352C32.8171 6.56983 32.0127 7.50838 31.4763 8.44693C31.0741 9.51955 30.6719 10.7263 30.6719 12.067C30.6719 13.4078 30.94 14.6145 31.6104 15.6872C32.1467 16.7598 33.0853 17.5642 34.0238 18.1006C34.9624 18.6369 36.1691 19.0391 37.3758 19.0391C38.5825 19.0391 39.7892 18.771 40.7277 18.1006C41.8004 17.5642 42.6048 16.6257 43.1412 15.6872C43.8115 14.6145 44.0797 13.4078 44.0797 12.067C44.0797 10.7263 43.8115 9.51955 43.1412 8.44693C42.7389 7.50838 41.9344 6.70391 40.8618 6.03352ZM41.5322 14.6145C41.13 15.419 40.5937 15.9553 39.7892 16.4916C39.1188 16.8939 38.3143 17.162 37.3758 17.162C36.4372 17.162 35.6328 16.8939 34.9624 16.4916C34.292 16.0894 33.6216 15.419 33.2194 14.6145C32.8171 13.8101 32.549 13.0056 32.549 12.067C32.549 11.1285 32.8171 10.1899 33.2194 9.51955C33.6216 8.71508 34.1579 8.17877 34.9624 7.77654C35.6328 7.3743 36.4372 7.10615 37.3758 7.10615C38.3143 7.10615 39.1188 7.3743 39.7892 7.77654C40.4596 8.17877 41.13 8.84916 41.5322 9.51955C41.9344 10.324 42.2026 11.1285 42.2026 12.067C42.2026 13.0056 41.9344 13.8101 41.5322 14.6145ZM54.6719 5.76536C53.8674 5.36313 53.0629 5.09497 52.1244 5.09497C51.1858 5.09497 50.2473 5.36313 49.5769 5.89944C49.0406 6.1676 48.6384 6.56983 48.3702 7.10615V5.49721H46.4931V18.771H48.3702V10.8603C48.3702 10.0559 48.5043 9.38548 48.7724 8.84916C49.0406 8.31285 49.4428 7.91061 49.9791 7.50838C50.5155 7.24022 51.0518 7.10615 51.7222 7.10615C52.3925 7.10615 52.9289 7.24022 53.4652 7.50838C54.0015 7.77654 54.4037 8.17877 54.6719 8.84916C54.94 9.38548 55.0741 10.0559 55.0741 10.8603V18.771H56.9512V10.0559C56.9512 9.11732 56.6831 8.31285 56.2808 7.50838C56.0127 6.83799 55.3423 6.1676 54.6719 5.76536ZM59.6328 18.6369H61.5099V0H59.6328V18.6369ZM69.8227 16.3575L65.5322 5.36313H63.521L68.7501 18.6369L68.2138 19.7095C67.8115 20.648 67.4093 21.3184 67.0071 21.5866C66.6048 21.9888 65.9344 22.1229 65.13 22.1229C64.8618 22.1229 64.5937 22.1229 64.3255 22.1229C64.0574 22.1229 63.9233 21.9888 63.6551 21.9888V23.7318C63.9233 23.8659 64.1914 23.8659 64.4596 24C64.7277 24 64.9959 24 65.2641 24C66.2026 24 66.873 23.8659 67.5434 23.4637C68.2138 23.0615 68.616 22.6592 69.0182 22.1229C69.4205 21.5866 69.6886 20.9162 69.9568 20.2458L75.9903 5.36313H73.9791L69.8227 16.3575ZM87.521 6.70391C87.1188 6.30168 86.7166 5.89944 86.1803 5.63128C85.3758 5.22905 84.4372 4.96089 83.4987 4.96089C82.292 4.96089 81.0853 5.22905 80.0127 5.89944C78.94 6.56983 78.1356 7.3743 77.5993 8.44693C77.0629 9.51955 76.6607 10.7263 76.6607 12.067C76.6607 13.4078 76.9289 14.6145 77.5993 15.6872C78.1356 16.7598 78.94 17.5642 80.0127 18.2346C81.0853 18.905 82.1579 19.1732 83.4987 19.1732C84.4372 19.1732 85.3758 19.0391 86.1803 18.6369C86.8507 18.3687 87.387 17.8324 87.7892 17.4302V19.0391H90.873V0H87.6551V6.70391H87.521ZM86.9847 14.0782C86.7166 14.7486 86.1803 15.1508 85.6439 15.5531C85.1076 15.9553 84.4372 16.0894 83.6328 16.0894C82.9624 16.0894 82.292 15.9553 81.6216 15.5531C81.0853 15.1508 80.549 14.7486 80.2808 14.0782C80.0127 13.4078 79.7445 12.7374 79.7445 11.933C79.7445 11.1285 79.8786 10.4581 80.2808 9.78771C80.549 9.2514 81.0853 8.71508 81.6216 8.31285C82.1579 7.91061 82.8283 7.77654 83.6328 7.77654C84.4372 7.77654 84.9736 7.91061 85.6439 8.31285C86.1803 8.71508 86.5825 9.11732 86.9847 9.78771C87.2529 10.4581 87.521 11.1285 87.521 11.933C87.521 12.7374 87.387 13.4078 86.9847 14.0782ZM103.342 5.89944C102.27 5.22905 101.063 4.96089 99.7222 4.96089C98.3814 4.96089 97.1747 5.22905 96.1021 5.89944C95.0294 6.56983 94.225 7.3743 93.5546 8.44693C92.8842 9.51955 92.616 10.7263 92.616 12.067C92.616 13.4078 92.8842 14.6145 93.5546 15.6872C94.225 16.7598 95.0294 17.5642 96.1021 18.2346C97.1747 18.905 98.3814 19.1732 99.7222 19.1732C101.063 19.1732 102.27 18.905 103.342 18.2346C104.415 17.5642 105.219 16.7598 105.89 15.6872C106.56 14.6145 106.828 13.4078 106.828 12.067C106.828 10.7263 106.56 9.51955 105.89 8.44693C105.219 7.3743 104.415 6.43575 103.342 5.89944ZM102.94 14.0782C102.672 14.7486 102.136 15.1508 101.599 15.5531C101.063 15.9553 100.393 16.0894 99.7222 16.0894C98.9177 16.0894 98.3814 15.9553 97.711 15.5531C97.1747 15.1508 96.7724 14.7486 96.3702 14.0782C96.102 13.4078 95.8339 12.7374 95.8339 11.933C95.8339 11.1285 95.968 10.4581 96.3702 9.78771C96.7724 9.11732 97.1747 8.71508 97.711 8.31285C98.2473 8.04469 98.9177 7.91061 99.7222 7.91061C100.393 7.91061 101.063 8.04469 101.599 8.44693C102.136 8.84916 102.538 9.2514 102.94 9.92179C103.208 10.4581 103.476 11.2626 103.476 12.067C103.342 12.7374 103.208 13.4078 102.94 14.0782ZM119.298 6.83799C118.895 6.30168 118.359 5.89944 117.823 5.49721C117.018 5.09497 116.214 4.82682 115.141 4.82682C113.934 4.82682 112.862 5.09497 111.789 5.63128C110.851 6.1676 110.046 6.97207 109.51 7.91061C108.974 8.84916 108.705 10.0559 108.705 11.2626C108.705 12.4693 108.974 13.676 109.51 14.6145C110.046 15.5531 110.851 16.3575 111.789 17.0279C112.728 17.6983 113.934 17.8324 115.141 17.8324C116.08 17.8324 117.018 17.5642 117.823 17.162C118.359 16.8939 118.761 16.4916 119.029 16.0894V17.5642C119.029 18.2346 118.895 18.771 118.627 19.3073C118.359 19.7095 117.957 20.1117 117.42 20.3799C116.884 20.648 116.348 20.7821 115.677 20.7821C114.873 20.7821 114.069 20.648 113.532 20.2458C112.996 19.8436 112.594 19.3073 112.326 18.771L109.376 19.8436C109.644 20.648 110.046 21.3184 110.717 21.8547C111.387 22.3911 112.057 22.9274 112.862 23.1955C113.666 23.4637 114.605 23.7318 115.677 23.7318C117.018 23.7318 118.091 23.4637 119.029 22.9274C119.968 22.3911 120.772 21.7207 121.309 20.7821C121.845 19.8436 122.113 18.771 122.113 17.6983V5.22905H119.029V6.83799H119.298ZM118.627 13.4078C118.359 13.9441 117.957 14.3464 117.42 14.6145C116.884 14.8827 116.348 15.0168 115.543 15.0168C114.739 15.0168 114.203 14.8827 113.666 14.6145C113.13 14.3464 112.728 13.8101 112.46 13.2737C112.191 12.7374 112.057 12.067 112.057 11.3966C112.057 10.7263 112.191 10.0559 112.46 9.51955C112.728 8.98324 113.13 8.58101 113.666 8.17877C114.337 8.04469 115.007 7.91061 115.677 7.91061C116.348 7.91061 116.884 8.04469 117.42 8.44693C117.957 8.71508 118.359 9.2514 118.627 9.78771C118.895 10.324 119.029 10.9944 119.029 11.6648C119.163 12.3352 118.895 12.8715 118.627 13.4078ZM129.756 7.64246C130.426 7.64246 131.096 7.77654 131.633 8.17877C132.169 8.58101 132.571 8.98324 132.839 9.65363L135.253 8.44693C134.851 7.3743 134.18 6.43575 133.242 5.89944C132.303 5.22905 131.096 4.96089 129.89 4.96089C128.951 4.96089 128.013 5.09497 127.342 5.49721C126.538 5.89944 126.001 6.30168 125.599 6.97207C125.197 7.64246 124.929 8.31285 124.929 9.11732C124.929 10.0559 125.197 10.8603 125.867 11.5307C126.404 12.2011 127.342 12.7374 128.415 13.0056L130.56 13.676C130.828 13.8101 131.096 13.8101 131.365 13.9441C131.633 14.0782 131.767 14.2123 131.901 14.3464C132.035 14.4804 132.169 14.7486 132.169 15.0168C132.169 15.419 132.035 15.8212 131.633 16.0894C131.231 16.3575 130.828 16.4916 130.292 16.4916C129.488 16.4916 128.817 16.2235 128.281 15.8212C127.61 15.419 127.208 14.7486 126.806 14.0782L124.393 15.2849C124.795 16.4916 125.465 17.4302 126.538 18.1006C127.61 18.771 128.817 19.1732 130.292 19.1732C131.365 19.1732 132.169 19.0391 132.974 18.6369C133.778 18.2346 134.314 17.8324 134.717 17.162C135.119 16.4916 135.387 15.8212 135.387 15.0168C135.387 14.0782 135.119 13.2737 134.448 12.6034C133.912 11.933 132.974 11.3966 131.901 11.1285L129.756 10.4581C129.488 10.324 129.219 10.1899 128.951 10.1899C128.683 10.1899 128.415 9.78771 128.281 9.51955C128.147 9.38548 128.147 9.11732 128.147 8.84916C128.147 8.44693 128.281 8.17877 128.549 7.91061C128.817 7.77654 129.219 7.64246 129.756 7.64246ZM146.918 7.10615V5.49721H137.398V7.3743H144.37L136.996 17.162V18.771H147.052V16.8939H139.543L146.918 7.10615ZM158.046 6.03352C156.974 5.49721 155.901 5.09497 154.56 5.09497C153.219 5.09497 152.147 5.36313 151.074 6.03352C150.001 6.56983 149.197 7.50838 148.661 8.44693C148.124 9.51955 147.722 10.7263 147.722 11.933C147.722 13.2737 147.99 14.4804 148.661 15.5531C149.197 16.6257 150.136 17.4302 151.074 17.9665C152.147 18.5028 153.219 18.905 154.426 18.905C155.633 18.905 156.839 18.6369 157.778 17.9665C158.851 17.4302 159.655 16.4916 160.191 15.5531C160.862 14.4804 161.13 13.2737 161.13 11.933C161.13 10.5922 160.862 9.38548 160.191 8.31285C159.789 7.50838 158.985 6.70391 158.046 6.03352ZM158.717 14.6145C158.314 15.419 157.778 15.9553 156.974 16.4916C156.303 16.8939 155.499 17.162 154.56 17.162C153.622 17.162 152.817 16.8939 152.147 16.4916C151.476 16.0894 150.806 15.419 150.404 14.6145C150.001 13.8101 149.733 13.0056 149.733 12.067C149.733 11.1285 150.001 10.1899 150.404 9.51955C150.806 8.71508 151.342 8.17877 152.147 7.77654C152.817 7.3743 153.622 7.10615 154.56 7.10615C155.499 7.10615 156.303 7.3743 156.974 7.77654C157.644 8.17877 158.314 8.84916 158.717 9.51955C159.119 10.324 159.387 11.1285 159.387 12.067C159.253 13.0056 159.119 13.8101 158.717 14.6145ZM170.918 5.76536C170.113 5.36313 169.309 5.09497 168.37 5.09497C167.432 5.09497 166.493 5.36313 165.823 5.89944C165.286 6.1676 164.884 6.56983 164.616 7.10615V5.49721H162.739V18.771H164.616V10.8603C164.616 10.0559 164.75 9.38548 165.018 8.84916C165.286 8.31285 165.689 7.91061 166.225 7.50838C166.761 7.24022 167.298 7.10615 167.968 7.10615C168.638 7.10615 169.175 7.24022 169.711 7.50838C170.247 7.77654 170.65 8.17877 170.918 8.84916C171.186 9.38548 171.32 10.0559 171.32 10.8603V18.771H173.197V10.0559C173.197 9.11732 172.929 8.31285 172.527 7.50838C172.258 6.83799 171.722 6.1676 170.918 5.76536ZM187.007 9.11732C186.739 8.31285 186.337 7.64246 185.8 7.10615C185.264 6.56983 184.594 6.03352 183.923 5.63128C183.119 5.22905 182.314 5.09497 181.376 5.09497C180.169 5.09497 179.096 5.36313 178.158 6.03352C177.219 6.56983 176.415 7.3743 175.879 8.44693C175.342 9.51955 175.074 10.5922 175.074 11.933C175.074 13.2737 175.342 14.4804 175.879 15.5531C176.415 16.6257 177.219 17.4302 178.292 18.1006C179.365 18.771 180.437 19.0391 181.644 19.0391C182.582 19.0391 183.387 18.905 184.191 18.6369C184.996 18.3687 185.532 17.9665 186.069 17.4302C186.605 16.8939 187.007 16.3575 187.275 15.8212L185.666 15.0168C185.264 15.6872 184.728 16.2235 184.057 16.7598C183.387 17.162 182.582 17.4302 181.644 17.4302C180.839 17.4302 180.035 17.162 179.231 16.7598C178.56 16.3575 177.89 15.6872 177.488 14.8827C177.085 14.2123 176.951 13.5419 176.951 12.7374H187.409C187.409 12.4693 187.409 12.3352 187.543 12.067C187.543 11.7989 187.543 11.6648 187.543 11.5307C187.409 10.7263 187.275 9.92179 187.007 9.11732ZM176.951 10.8603C176.951 10.324 177.219 9.78771 177.353 9.2514C177.756 8.44693 178.292 7.91061 178.962 7.50838C179.633 7.10615 180.437 6.83799 181.242 6.83799C182.046 6.83799 182.851 7.10615 183.521 7.50838C184.191 7.91061 184.728 8.44693 184.996 9.2514C185.264 9.78771 185.398 10.324 185.398 10.9944H176.951V10.8603Z" fill="#17212C"/>
</svg>
