<svg width="283" height="36" viewBox="0 0 283 36" fill="none" xmlns="http://www.w3.org/2000/svg" shape-rendering="geometricPrecision">
<path d="M27.5531 23.3296V28.1564H37.0056V23.3296H27.5531ZM0 27.9553H9.45251V23.1285H0V27.9553ZM29.9665 8.24581L23.3296 14.8827L26.7486 18.3017L33.3855 11.6648L29.9665 8.24581ZM1.60894 0L0 4.42458C9.65363 8.24581 16.0894 17.6983 16.0894 27.9553H20.9162C20.9162 15.6871 13.2737 4.42458 1.60894 0Z" fill="white"/>
<path d="M62.3396 9.05028C60.7307 8.24581 59.1217 7.64246 57.1106 7.64246C55.0994 7.64246 53.4904 8.04469 51.8815 9.05028C50.2726 9.85475 49.0659 11.2626 48.2614 12.6704C47.658 14.2793 47.0547 16.0894 47.0547 18.1006C47.0547 20.1117 47.4569 21.9218 48.4625 23.5307C49.267 25.1397 50.6748 26.3464 52.0826 27.1508C53.4904 27.9553 55.3005 28.5587 57.1106 28.5587C58.9206 28.5587 60.7307 28.1564 62.1385 27.1508C63.7474 26.3464 64.9541 24.9385 65.7586 23.5307C66.7642 21.9218 67.1664 20.1117 67.1664 18.1006C67.1664 16.0894 66.7642 14.2793 65.7586 12.6704C65.1552 11.2626 63.9485 10.0559 62.3396 9.05028ZM63.3452 21.9218C62.7418 23.1285 61.9374 23.933 60.7307 24.7374C59.7251 25.3408 58.5184 25.743 57.1106 25.743C55.7027 25.743 54.496 25.3408 53.4904 24.7374C52.4849 24.1341 51.4793 23.1285 50.8759 21.9218C50.2726 20.7151 49.8703 19.5084 49.8703 18.1006C49.8703 16.6927 50.2726 15.2849 50.8759 14.2793C51.4793 13.0726 52.2837 12.2682 53.4904 11.6648C54.496 11.0615 55.7027 10.6592 57.1106 10.6592C58.5184 10.6592 59.7251 11.0615 60.7307 11.6648C61.7363 12.2682 62.7418 13.2737 63.3452 14.2793C63.9485 15.486 64.3508 16.6927 64.3508 18.1006C64.3508 19.5084 63.9485 20.7151 63.3452 21.9218ZM83.0547 8.64805C81.848 8.04469 80.6413 7.64246 79.2335 7.64246C77.8256 7.64246 76.4178 8.04469 75.4122 8.84916C74.6078 9.2514 74.0044 9.85475 73.6022 10.6592V8.24581H70.7865V28.1564H73.6022V16.2905C73.6022 15.0838 73.8033 14.0782 74.2055 13.2737C74.6078 12.4693 75.2111 11.8659 76.0156 11.2626C76.8201 10.8603 77.6245 10.6592 78.6301 10.6592C79.6357 10.6592 80.4402 10.8603 81.2446 11.2626C82.0491 11.6648 82.6525 12.2682 83.0547 13.2737C83.4569 14.0782 83.658 15.0838 83.658 16.2905V28.1564H86.4737V15.0838C86.4737 13.676 86.0714 12.4693 85.4681 11.2626C85.0659 10.257 84.0603 9.2514 83.0547 8.64805ZM90.496 27.9553H93.3117V0H90.496V27.9553ZM105.781 24.5363L99.3452 8.04469H96.3284L104.172 27.9553L103.368 29.5642C102.764 30.9721 102.161 31.9777 101.557 32.3799C100.954 32.9832 99.9485 33.1844 98.7418 33.1844C98.3396 33.1844 97.9374 33.1844 97.5351 33.1844C97.1329 33.1844 96.9318 32.9832 96.5295 32.9832V35.5978C96.9318 35.7989 97.334 35.7989 97.7363 36C98.1385 36 98.5407 36 98.943 36C100.351 36 101.356 35.7989 102.362 35.1955C103.368 34.5922 103.971 33.9888 104.574 33.1844C105.178 32.3799 105.58 31.3743 105.982 30.3687L115.032 8.04469H112.016L105.781 24.5363ZM132.328 10.0559C131.725 9.45251 131.122 8.84916 130.317 8.44693C129.111 7.84358 127.703 7.44134 126.295 7.44134C124.485 7.44134 122.675 7.84358 121.066 8.84916C119.457 9.85475 118.25 11.0615 117.446 12.6704C116.641 14.2793 116.038 16.0894 116.038 18.1006C116.038 20.1117 116.44 21.9218 117.446 23.5307C118.25 25.1397 119.457 26.3464 121.066 27.352C122.675 28.3575 124.284 28.7598 126.295 28.7598C127.703 28.7598 129.111 28.5587 130.317 27.9553C131.323 27.5531 132.127 26.7486 132.731 26.1453V28.5587H137.356V0H132.53V10.0559H132.328ZM131.524 21.1173C131.122 22.1229 130.317 22.7263 129.513 23.3296C128.708 23.933 127.703 24.1341 126.496 24.1341C125.49 24.1341 124.485 23.933 123.479 23.3296C122.675 22.7263 121.87 22.1229 121.468 21.1173C121.066 20.1117 120.664 19.1061 120.664 17.8994C120.664 16.6927 120.865 15.6872 121.468 14.6816C121.87 13.8771 122.675 13.0726 123.479 12.4693C124.284 11.8659 125.289 11.6648 126.496 11.6648C127.703 11.6648 128.507 11.8659 129.513 12.4693C130.317 13.0726 130.921 13.676 131.524 14.6816C131.926 15.6872 132.328 16.6927 132.328 17.8994C132.328 19.1061 132.127 20.1117 131.524 21.1173ZM156.06 8.84916C154.451 7.84358 152.641 7.44134 150.63 7.44134C148.619 7.44134 146.809 7.84358 145.2 8.84916C143.591 9.85475 142.384 11.0615 141.379 12.6704C140.373 14.2793 139.971 16.0894 139.971 18.1006C139.971 20.1117 140.373 21.9218 141.379 23.5307C142.384 25.1397 143.591 26.3464 145.2 27.352C146.809 28.3575 148.619 28.7598 150.63 28.7598C152.641 28.7598 154.451 28.3575 156.06 27.352C157.669 26.3464 158.876 25.1397 159.882 23.5307C160.887 21.9218 161.289 20.1117 161.289 18.1006C161.289 16.0894 160.887 14.2793 159.882 12.6704C158.876 11.0615 157.669 9.65363 156.06 8.84916ZM155.457 21.1173C155.055 22.1229 154.25 22.7263 153.446 23.3296C152.641 23.933 151.636 24.1341 150.63 24.1341C149.423 24.1341 148.619 23.933 147.613 23.3296C146.809 22.7263 146.206 22.1229 145.602 21.1173C145.2 20.1117 144.798 19.1061 144.798 17.8994C144.798 16.6927 144.999 15.6872 145.602 14.6816C146.206 13.676 146.809 13.0726 147.613 12.4693C148.418 12.067 149.423 11.8659 150.63 11.8659C151.636 11.8659 152.641 12.067 153.446 12.6704C154.25 13.2737 154.854 13.8771 155.457 14.8827C155.859 15.6872 156.261 16.8939 156.261 18.1006C156.06 19.1061 155.859 20.1117 155.457 21.1173ZM179.993 10.257C179.39 9.45251 178.585 8.84916 177.781 8.24581C176.574 7.64246 175.368 7.24022 173.759 7.24022C171.949 7.24022 170.34 7.64246 168.731 8.44693C167.323 9.2514 166.116 10.4581 165.312 11.8659C164.507 13.2737 164.105 15.0838 164.105 16.8939C164.105 18.7039 164.507 20.514 165.312 21.9218C166.116 23.3296 167.323 24.5363 168.731 25.5419C170.138 26.5475 171.949 26.7486 173.759 26.7486C175.166 26.7486 176.574 26.3464 177.781 25.743C178.585 25.3408 179.189 24.7374 179.591 24.1341V26.3464C179.591 27.352 179.39 28.1564 178.988 28.9609C178.585 29.5642 177.982 30.1676 177.178 30.5698C176.373 30.9721 175.569 31.1732 174.563 31.1732C173.356 31.1732 172.15 30.9721 171.345 30.3687C170.541 29.7654 169.937 28.9609 169.535 28.1564L165.111 29.7654C165.513 30.9721 166.116 31.9777 167.122 32.7821C168.127 33.5866 169.133 34.3911 170.34 34.7933C171.546 35.1955 172.954 35.5978 174.563 35.5978C176.574 35.5978 178.183 35.1955 179.591 34.3911C180.999 33.5866 182.206 32.581 183.01 31.1732C183.814 29.7654 184.217 28.1564 184.217 26.5475V7.84358H179.591V10.257H179.993ZM178.988 20.1117C178.585 20.9162 177.982 21.5196 177.178 21.9218C176.373 22.324 175.569 22.5251 174.362 22.5251C173.155 22.5251 172.351 22.324 171.546 21.9218C170.742 21.5196 170.138 20.7151 169.736 19.9106C169.334 19.1061 169.133 18.1006 169.133 17.095C169.133 16.0894 169.334 15.0838 169.736 14.2793C170.138 13.4749 170.742 12.8715 171.546 12.2682C172.552 12.067 173.557 11.8659 174.563 11.8659C175.569 11.8659 176.373 12.067 177.178 12.6704C177.982 13.0726 178.585 13.8771 178.988 14.6816C179.39 15.486 179.591 16.4916 179.591 17.4972C179.792 18.5028 179.39 19.3073 178.988 20.1117ZM195.68 11.4637C196.686 11.4637 197.692 11.6648 198.496 12.2682C199.301 12.8715 199.904 13.4749 200.306 14.4804L203.926 12.6704C203.323 11.0615 202.317 9.65363 200.909 8.84916C199.502 7.84358 197.692 7.44134 195.882 7.44134C194.474 7.44134 193.066 7.64246 192.06 8.24581C190.854 8.84916 190.049 9.45251 189.446 10.4581C188.842 11.4637 188.44 12.4693 188.44 13.676C188.44 15.0838 188.842 16.2905 189.848 17.2961C190.652 18.3017 192.06 19.1061 193.669 19.5084L196.887 20.514C197.289 20.7151 197.692 20.7151 198.094 20.9162C198.496 21.1173 198.697 21.3184 198.898 21.5196C199.099 21.7207 199.301 22.1229 199.301 22.5251C199.301 23.1285 199.099 23.7318 198.496 24.1341C197.893 24.5363 197.289 24.7374 196.485 24.7374C195.278 24.7374 194.273 24.3352 193.468 23.7318C192.463 23.1285 191.859 22.1229 191.256 21.1173L187.636 22.9274C188.239 24.7374 189.245 26.1453 190.854 27.1508C192.463 28.1564 194.273 28.7598 196.485 28.7598C198.094 28.7598 199.301 28.5587 200.507 27.9553C201.714 27.352 202.518 26.7486 203.122 25.743C203.725 24.7374 204.127 23.7318 204.127 22.5251C204.127 21.1173 203.725 19.9106 202.719 18.905C201.915 17.8994 200.507 17.095 198.898 16.6927L195.68 15.6872C195.278 15.486 194.876 15.2849 194.474 15.2849C194.071 15.2849 193.669 14.6816 193.468 14.2793C193.267 14.0782 193.267 13.676 193.267 13.2737C193.267 12.6704 193.468 12.2682 193.87 11.8659C194.273 11.6648 194.876 11.4637 195.68 11.4637ZM221.423 10.6592V8.24581H207.144V11.0615H217.602L206.541 25.743V28.1564H221.625V25.3408H210.362L221.423 10.6592ZM238.116 9.05028C236.507 8.24581 234.898 7.64246 232.887 7.64246C230.876 7.64246 229.267 8.04469 227.658 9.05028C226.049 9.85475 224.842 11.2626 224.038 12.6704C223.233 14.2793 222.63 16.0894 222.63 17.8994C222.63 19.9106 223.032 21.7207 224.038 23.3296C224.842 24.9385 226.25 26.1453 227.658 26.9497C229.267 27.7542 230.876 28.3575 232.686 28.3575C234.496 28.3575 236.306 27.9553 237.714 26.9497C239.323 26.1453 240.53 24.7374 241.334 23.3296C242.34 21.7207 242.742 19.9106 242.742 17.8994C242.742 15.8883 242.34 14.0782 241.334 12.4693C240.731 11.2626 239.524 10.0559 238.116 9.05028ZM239.122 21.9218C238.518 23.1285 237.714 23.933 236.507 24.7374C235.502 25.3408 234.295 25.743 232.887 25.743C231.479 25.743 230.273 25.3408 229.267 24.7374C228.261 24.1341 227.256 23.1285 226.652 21.9218C226.049 20.7151 225.647 19.5084 225.647 18.1006C225.647 16.6927 226.049 15.2849 226.652 14.2793C227.256 13.0726 228.06 12.2682 229.267 11.6648C230.273 11.0615 231.479 10.6592 232.887 10.6592C234.295 10.6592 235.502 11.0615 236.507 11.6648C237.513 12.2682 238.518 13.2737 239.122 14.2793C239.725 15.486 240.127 16.6927 240.127 18.1006C239.926 19.5084 239.725 20.7151 239.122 21.9218ZM257.423 8.64805C256.217 8.04469 255.01 7.64246 253.602 7.64246C252.194 7.64246 250.787 8.04469 249.781 8.84916C248.976 9.2514 248.373 9.85475 247.971 10.6592V8.24581H245.155V28.1564H247.971V16.2905C247.971 15.0838 248.172 14.0782 248.574 13.2737C248.976 12.4693 249.58 11.8659 250.384 11.2626C251.189 10.8603 251.993 10.6592 252.999 10.6592C254.004 10.6592 254.809 10.8603 255.613 11.2626C256.418 11.6648 257.021 12.2682 257.423 13.2737C257.826 14.0782 258.027 15.0838 258.027 16.2905V28.1564H260.842V15.0838C260.842 13.676 260.44 12.4693 259.837 11.2626C259.435 10.257 258.63 9.2514 257.423 8.64805ZM281.557 13.676C281.155 12.4693 280.552 11.4637 279.747 10.6592C278.943 9.85475 277.937 9.05028 276.932 8.44693C275.725 7.84358 274.518 7.64246 273.111 7.64246C271.301 7.64246 269.692 8.04469 268.284 9.05028C266.876 9.85475 265.669 11.0615 264.865 12.6704C264.06 14.2793 263.658 15.8883 263.658 17.8994C263.658 19.9106 264.06 21.7207 264.865 23.3296C265.669 24.9385 266.876 26.1453 268.485 27.1508C270.094 28.1564 271.703 28.5587 273.513 28.5587C274.921 28.5587 276.127 28.3575 277.334 27.9553C278.541 27.5531 279.345 26.9497 280.15 26.1453C280.954 25.3408 281.557 24.5363 281.96 23.7318L279.546 22.5251C278.943 23.5307 278.139 24.3352 277.133 25.1397C276.127 25.743 274.921 26.1453 273.513 26.1453C272.306 26.1453 271.099 25.743 269.893 25.1397C268.887 24.5363 267.882 23.5307 267.278 22.324C266.675 21.3184 266.474 20.3128 266.474 19.1061H282.161C282.161 18.7039 282.161 18.5028 282.362 18.1006C282.362 17.6983 282.362 17.4972 282.362 17.2961C282.161 16.0894 281.96 14.8827 281.557 13.676ZM266.474 16.2905C266.474 15.486 266.876 14.6816 267.077 13.8771C267.68 12.6704 268.485 11.8659 269.49 11.2626C270.496 10.6592 271.703 10.257 272.909 10.257C274.116 10.257 275.323 10.6592 276.328 11.2626C277.334 11.8659 278.138 12.6704 278.541 13.8771C278.943 14.6816 279.144 15.486 279.144 16.4916H266.474V16.2905Z" fill="white"/>
</svg>
